<svg width="48" height="48" viewBox="0 0 512 512" fill="none" xmlns="http://www.w3.org/2000/svg">
  <path d="M370.633,275.333c-1.341-1.342-3.119-2.16-5.01-2.305l-38.964-2.998c-2.311-0.176-4.589,0.664-6.229,2.305l-7.868,7.868l-6.132-6.132l93.404-105.29c30.514,9.543,64.049,1.468,86.868-21.35c20.85-20.85,29.564-50.538,23.31-79.416c-1.304-6.022-9.017-8.311-13.387-3.938l-48.885,48.886c-3.062,3.062-8.177,3.062-11.24,0l-37.464-37.464c-3.062-3.062-3.062-8.177,0-11.24l48.886-48.885c4.371-4.37,2.085-12.082-3.938-13.387c-28.879-6.255-58.566,2.459-79.416,23.31c-22.818,22.818-30.896,56.352-21.35,86.868l-105.29,93.404l-50.625-50.625c-3.104-3.104-8.136-3.104-11.239,0c-3.104,3.104-3.104,8.136,0,11.239l125.261,125.26l-9.741,9.741L97.274,106.875l9.741-9.741l45.947,45.947c3.232,3.232,8.689,3.015,11.662-0.456c2.664-3.11,2.471-7.89-0.423-10.783l-50.462-50.461L94.863,36.366c-0.725-1.728-2.038-3.145-3.707-4L29.715,0.895c-3.071-1.574-6.804-0.985-9.242,1.454L2.489,20.333c-2.439,2.439-3.026,6.173-1.454,9.242l31.47,61.441c0.855,1.669,2.272,2.981,4,3.707L81.519,113.6L203.78,235.861L19.065,399.721c-11.573,10.093-18.51,24.684-19.033,40.031c-0.523,15.347,5.404,30.376,16.262,41.234l14.72,14.72c10.415,10.416,24.668,16.293,39.359,16.293c0.623,0,1.25-0.011,1.876-0.032c15.347-0.523,29.938-7.461,39.986-18.984l79.649-89.785c2.913-3.284,2.612-8.307-0.671-11.219c-3.282-2.913-8.306-2.612-11.219,0.671l-79.694,89.836c-7.315,8.388-17.47,13.216-28.593,13.595c-11.138,0.379-21.584-3.746-29.452-11.615l-14.72-14.72c-7.87-7.87-11.994-18.329-11.615-29.452c0.379-11.123,5.208-21.278,13.645-28.637l185.477-164.537l8.241,8.241L69.706,389.301c-4.994,4.355-2.531,12.818,3.993,13.841c9.008,1.413,17.181,5.57,23.635,12.023c6.257,6.257,10.372,14.168,11.897,22.874c1.129,6.441,9.507,8.794,13.818,3.853l133.591-153.174l8.241,8.241l-62.326,70.259c-2.644,2.981-2.639,7.614,0.028,10.58c3.129,3.481,8.755,3.47,11.863-0.032l61.696-69.548l4.205,4.205l-7.868,7.868c-1.64,1.64-2.483,3.915-2.305,6.229l2.998,38.964c0.145,1.891,0.963,3.669,2.305,5.01l129.175,129.175c7.506,7.506,17.484,11.638,28.098,11.638c10.614,0,20.594-4.133,28.099-11.638l38.964-38.964c7.506-7.506,11.638-17.484,11.638-28.099c0-10.615-4.133-20.593-11.638-28.098L370.633,275.333z" fill="#4285F4"/>
</svg>
